# xmcd
#
# Track frame offsets:
#	150
#	19705
#	40974
#	61412
#	82574
#	104503
#	125703
#	148271
#	171194
#	189540
#	203017
#	224888
#	252757
#
# Disc length: 3624 seconds
#
# Revision: 1
# Processed by: cddbd v1.5.2PL0 Copyright (c) Steve Scherf et al.
# Submitted via: audiograbber 1.83.01
#
DISCID=bf0e260d
DTITLE=Geoff Taylor - Take me back
DYEAR=2007
DGENRE=Country
TTITLE0=Hard times come easy
TTITLE1=Close you're eyes
TTITLE2=Take me back
TTITLE3=How will they remember you
TTITLE4=Come and live
TTITLE5=Daddy don't you love me anymore
TTITLE6=The brighter side of life
TTITLE7=Here is a song
TTITLE8=I wanna drive a truck
TTITLE9=When I was a carnie
TTITLE10=Memory of you
TTITLE11=Wild colonial boy
TTITLE12=Grandma's
EXTD=
EXTT0=
EXTT1=
EXTT2=
EXTT3=
EXTT4=
EXTT5=
EXTT6=
EXTT7=
EXTT8=
EXTT9=
EXTT10=
EXTT11=
EXTT12=
PLAYORDER=
